# AST/ASF file generated using VICON BodyLanguage
# -----------------------------------------------
:version 1.10
:name VICON
:units
  mass 1.0
  length 0.45
  angle deg
:documentation
   .ast/.asf automatically generated from VICON data using
   VICON BodyBuilder and BodyLanguage model FoxedUp or BRILLIANT.MOD
:root
   order TX TY TZ RX RY RZ
   axis XYZ
   position 0 0 0  
   orientation 0 0 0 
:bonedata
  begin
     id 1 
     name lhipjoint
     direction 0.646657 -0.683706 0.338203 
     length 2.4948 
     axis 0 0 0  XYZ
  end
  begin
     id 2 
     name lfemur
     direction 0.34202 -0.939693 0  
     length 6.79491  
     axis 0 0 20  XYZ
    dof rx ry rz
    limits (-160.0 20.0)
           (-70.0 70.0)
           (-60.0 70.0)
  end
  begin
     id 3 
     name ltibia
     direction 0.34202 -0.939693 0   
     length 7.56807   
     axis 0 0 20   XYZ
    dof rx
    limits (-10.0 170.0)
  end
  begin
     id 4 
     name lfoot
     direction 0.0679796 -0.186772 0.980048   
     length 2.53018   
     axis -90 7.62852e-016 20   XYZ
    dof rx rz
    limits (-45.0 90.0)
           (-70.0 20.0)
  end
  begin
     id 5 
     name ltoes
     direction 1.53625e-011 -4.21881e-011 1   
     length 1.26912   
     axis -90 7.62852e-016 20   XYZ
    dof rx
    limits (-90.0 20.0)
  end
  begin
     id 6 
     name rhipjoint
     direction -0.618868 -0.704065 0.348274   
     length 2.42265  
     axis 0 0 0  XYZ 
  end
  begin
     id 7 
     name rfemur
     direction -0.34202 -0.939693 0   
     length 6.73814   
     axis 0 0 -20   XYZ
    dof rx ry rz
    limits (-160.0 20.0)
           (-70.0 70.0)
           (-70.0 60.0)
  end
  begin
     id 8 
     name rtibia
     direction -0.34202 -0.939693 0   
     length 7.66799   
     axis 0 0 -20   XYZ
    dof rx
    limits (-10.0 170.0)
 end
 begin
     id 9 
     name rfoot
     direction -0.0727352 -0.199838 0.977125   
     length 2.57224  
     axis -90 -7.62852e-016 -20   XYZ
    dof rx rz
    limits (-45.0 90.0)
           (-20.0 70.0)
  end
  begin
     id 10 
     name rtoes
     direction -1.53501e-011 -4.21858e-011 1   
     length 1.28858   
     axis -90 -7.62852e-016 -20   XYZ
    dof rx
    limits (-90.0 20.0)
  end
  begin
     id 11 
     name lowerback
     direction -0.0172471 0.995767 -0.0902851   
     length 2.20206   
     axis 0 0 0   XYZ
    dof rx ry rz
    limits (-20.0 45.0)
           (-30.0 30.0)
           (-30.0 30.0)
  end
  begin
     id 12 
     name upperback
     direction -0.000110737 0.999714 0.0239043   
     length 2.19523   
     axis 0 0 0   XYZ
    dof rx ry rz
    limits (-20.0 45.0)
           (-30.0 30.0)
           (-30.0 30.0)
  end
  begin
     id 13 
     name thorax
     direction 0.00704869 0.997783 0.0661741   
     length 2.21977   
     axis 0 0 0   XYZ
    dof rx ry rz
    limits (-20.0 45.0)
           (-30.0 30.0)
           (-30.0 30.0)
  end
  begin
     id 14 
     name lowerneck
     direction -0.00407501 0.995527 0.0943846   
     length 1.83142   
     axis 0 0 0   XYZ
    dof rx ry rz
    limits (-20.0 45.0)
           (-30.0 30.0)
           (-30.0 30.0)
  end
  begin
     id 15 
     name upperneck
     direction 0.0640586 0.986486 -0.150807   
     length 1.84616   
     axis 0 0 0   XYZ
    dof rx ry rz
    limits (-20.0 45.0)
           (-30.0 30.0)
           (-30.0 30.0)
  end
  begin
     id 16
     name head
     direction 0.0188017 0.99791 -0.0618239  
     length 1.85932  
     axis 0 0 0   XYZ
    dof rx ry rz
    limits (-20.0 45.0)
           (-30.0 30.0)
           (-30.0 30.0)
  end
  begin
     id 17 
     name lclavicle
     direction 0.976074 0.206905 0.066852  
     length 3.81043  
     axis 0 0 0   XYZ
    dof ry rz
    limits (-20.0 10.0)
           (0.0 20.0)
  end
  begin
     id 18 
     name lhumerus
     direction 1 -4.48971e-011 1.86916e-027   
     length 5.37587   
     axis 180 -30 -90   XYZ
    dof rx ry rz
    limits (-60.0 90.0)
           (-90.0 90.0)
           (-90.0 90.0)
  end
  begin
     id 19
     name lradius
     direction 1 -4.48968e-011 1.69187e-027   
     length 3.35977   
     axis 180 -30 -90   XYZ
    dof rx
    limits (-10.0 170.0)
  end
  begin
     id 20
     name lwrist
     direction 1 -4.48968e-011 5.8978e-027   
     length 1.67988   
     axis -3.27506e-015 90 90   XYZ
    dof ry
    limits (-180.0 0.0)
 end
  begin
     id 21 
     name lhand
     direction 1 -4.49028e-011 1.18071e-026   
     length 0.561859   
     axis -7.52654e-015 90 90   XYZ
    dof rx rz
    limits (-90.0 90.0)
           (-45.0 45.0)
  end
  begin
     id 22 
     name lfingers
     direction 1 -4.48927e-011 2.35758e-026   
     length 0.452985   
     axis -1.50534e-014 90 90   XYZ
    dof rx
    limits (0.0 90.0)
  end
  begin
     id 23
     name lthumb
     direction 0.707107 -6.34898e-011 0.707107   
     length 0.650399   
     axis -90 45 5.69224e-014   XYZ
    dof rx rz
    limits (-45.0 45.0)
           (-45.0 45.0)
  end
  begin
     id 24 
     name rclavicle
     direction -0.988403 0.151789 0.00439714   
     length 3.6942  
     axis 0 0 0   XYZ 
    dof ry rz
    limits (-10.0 20.0)
           (-20.0 0.0)
  end
  begin
     id 25 
     name rhumerus
     direction -1 -4.48978e-011 1.62495e-027  
     length 5.22819   
     axis 180 30 90   XYZ
    dof rx ry rz
    limits (-90.0 60.0)
           (-90.0 90.0)
           (-90.0 90.0)
  end
  begin
     id 26 
     name rradius
     direction -1 -4.48961e-011 3.47796e-027   
     length 3.40764   
     axis 180 30 90   XYZ
    dof rx
    limits (-10.0 170.0)
  end
  begin
     id 27 
     name rwrist
     direction -1 -4.48949e-011 5.89602e-027   
     length 1.70382   
     axis -3.27506e-015 -90 -90   XYZ
    dof ry
    limits (-180.0 0.0)
  end
  begin
     id 28
     name rhand
     direction -1 -4.48977e-011 1.17973e-026   
     length 0.583255   
     axis -7.52654e-015 -90 -90   XYZ
    dof rx rz
    limits (-90.0 90.0)
           (-45.0 45.0)
  end
  begin
     id 29
     name rfingers
     direction -1 -4.49099e-011 2.36408e-026   
     length 0.470235   
     axis -1.50534e-014 -90 -90   XYZ
    dof rx
    limits (0.0 90.0)
  end
  begin
     id 30
     name rthumb
     direction -0.707107 -6.35011e-011 0.707107   
     length 0.675167   
     axis -90 -45 -5.69224e-014   XYZ
    dof rx rz
    limits (-45.0 45.0)
           (-45.0 45.0)
  end
:hierarchy
  begin
    root lhipjoint rhipjoint lowerback
    lhipjoint lfemur
    lfemur ltibia
    ltibia lfoot
    lfoot ltoes
    rhipjoint rfemur
    rfemur rtibia
    rtibia rfoot
    rfoot rtoes
    lowerback upperback
    upperback thorax
    thorax lowerneck lclavicle rclavicle
    lowerneck upperneck
    upperneck head
    lclavicle lhumerus
    lhumerus lradius
    lradius lwrist
    lwrist lhand lthumb
    lhand lfingers
    rclavicle rhumerus
    rhumerus rradius
    rradius rwrist
    rwrist rhand rthumb
    rhand rfingers
  end

#!OML:ASF G:\JayActor3\Patient Classification 1\Patient 1\Session 2\male.ASF
:FULLY-SPECIFIED
:DEGREES
1691
root 3.3789 16.803 -5.26953 1463.63 -268.399 -691.502
lowerback -2.82923 -1.28269 -1.80368
upperback -5.22896 -1.556 0.929324
thorax -3.72537 -0.636519 1.9707
lowerneck -12.98 5.3208 3.84273
upperneck 23.2132 4.66438 10.0109
head 9.34459 3.83239 3.40189
rclavicle 2.21148e-015 1.09332e-015
rhumerus -66.8041 33.5934 -107.729
rradius 104.998
rwrist -4.39199
rhand -44.0425 36.4584
rfingers 7.12502
rthumb -16.8621 7.17054
lclavicle 2.21148e-015 1.09332e-015
lhumerus -58.6279 -40.8624 116.727
lradius 104.722
lwrist 27.2755
lhand -13.0339 4.38808
lfingers 7.12502
lthumb 13.0605 33.9592
rfemur -14.2516 5.27829 27.0744
rtibia 35.7361
rfoot -16.0777 -4.69693
rtoes 24.2316
lfemur 14.1134 6.80291 -14.6805
ltibia 43.1691
lfoot 28.1446 -3.69355
ltoes 4.16542
1692
root 3.50042 16.7858 -5.26186 1472.44 -267.982 -682.386
lowerback -2.4644 -1.17108 -1.35115
upperback -5.1454 -1.41552 1.00954
thorax -3.8583 -0.583116 1.80638
lowerneck -12.9427 5.29521 3.79855
upperneck 23.1327 4.63074 10.0963
head 9.30691 3.82026 3.42943
rclavicle -4.5969e-015 2.08724e-015
rhumerus -66.2109 33.8918 -107.691
rradius 104.832
rwrist -4.38481
rhand -44.031 36.3954
rfingers 7.12502
rthumb -16.851 7.10657
lclavicle -4.5969e-015 2.08724e-015
lhumerus -58.6745 -40.568 116.576
lradius 104.363
lwrist 27.1633
lhand -13.0969 4.41286
lfingers 7.12502
lthumb 12.9998 33.9878
rfemur -13.3886 5.02489 27.7023
rtibia 35.6601
rfoot -16.4876 -4.82184
rtoes 23.9059
lfemur 12.3571 6.68539 -13.9985
ltibia 46.7085
lfoot 26.8317 -4.21253
ltoes 3.00663
1693
root 3.62127 16.7704 -5.25392 1478.2 -267.514 -676.313
lowerback -2.11519 -1.06459 -0.894208
upperback -5.05886 -1.27726 1.09916
thorax -3.97804 -0.531027 1.64765
lowerneck -12.9091 5.26906 3.75442
upperneck 23.0548 4.5953 10.1852
head 9.27096 3.80787 3.45831
rclavicle 2.70844e-015 -2.5842e-015
rhumerus -65.5752 34.1982 -107.633
rradius 104.656
rwrist -4.37477
rhand -43.9991 36.3423
rfingers 7.12502
rthumb -16.8204 7.05088
lclavicle 2.70844e-015 -2.5842e-015
lhumerus -58.7231 -40.2468 116.42
lradius 103.988
lwrist 26.98
lhand -13.1278 4.43892
lfingers 7.12502
lthumb 12.97 34.0158
rfemur -12.5049 4.78903 28.3454
rtibia 35.5135
rfoot -16.8841 -4.96805
rtoes 23.5317
lfemur 10.5856 6.50745 -13.3298
ltibia 50.1136
lfoot 25.3725 -4.90778
ltoes 2.00813
1694
root 3.74152 16.7572 -5.24593 1481.96 -267.016 -672.276
lowerback -1.80607 -0.96462 -0.441399
upperback -4.97321 -1.1432 1.1934
thorax -4.07468 -0.480834 1.49413
lowerneck -12.8764 5.24094 3.71201
upperneck 22.9768 4.55681 10.2743
head 9.23543 3.79421 3.48669
rclavicle -6.08778e-015 5.11871e-015
rhumerus -64.8985 34.5035 -107.556
rradius 104.466
rwrist -4.35799
rhand -43.9428 36.3187
rfingers 7.12502
rthumb -16.7661 7.02262
lclavicle -6.08778e-015 5.11871e-015
lhumerus -58.7818 -39.9068 116.269
lradius 103.604
lwrist 26.7452
lhand -13.134 4.46603
lfingers 7.12502
lthumb 12.964 34.0433
rfemur -11.6206 4.56437 28.9881
rtibia 35.2999
rfoot -17.2564 -5.12289
rtoes 23.1605
lfemur 8.7785 6.27617 -12.6883
ltibia 53.3699
lfoot 23.8719 -5.72116
ltoes 1.07934
1695
root 3.86124 16.7466 -5.23807 1484.17 -266.51 -669.822
lowerback -1.55161 -0.871117 -0.0133867
upperback -4.89737 -1.01429 1.28158
thorax -4.14911 -0.432141 1.34655
lowerneck -12.8426 5.20632 3.66946
upperneck 22.903 4.50866 10.3676
head 9.20157 3.77678 3.51564
rclavicle -4.62174e-015 -5.06901e-015
rhumerus -64.1955 34.7902 -107.467
rradius 104.264
rwrist -4.34079
rhand -43.869 36.3226
rfingers 7.12502
rthumb -16.6951 7.02054
lclavicle -4.62174e-015 -5.06901e-015
lhumerus -58.8702 -39.5614 116.135
lradius 103.21
lwrist 26.4936
lhand -13.1374 4.48681
lfingers 7.12502
lthumb 12.9607 34.0643
rfemur -10.7582 4.33761 29.6013
rtibia 35.0292
rfoot -17.593 -5.27892
rtoes 22.7973
lfemur 6.92088 5.99969 -12.1045
ltibia 56.4616
lfoot 22.3719 -6.58102
ltoes -0.120381
1696
root 3.9804 16.7389 -5.23054 1485.21 -266.02 -668.598
lowerback -1.3682 -0.784023 0.367975
upperback -4.83123 -0.892242 1.35725
thorax -4.1917 -0.385078 1.21059
lowerneck -12.8195 5.16581 3.61858
upperneck 22.8305 4.45237 10.4644
head 9.17026 3.75538 3.54682
rclavicle -4.12478e-015 1.02126e-014
rhumerus -63.4717 35.0607 -107.369
rradius 104.058
rwrist -4.32171
rhand -43.7915 36.3293
rfingers 7.12502
rthumb -16.6205 7.02095
lclavicle -4.12478e-015 1.02126e-014
lhumerus -58.9827 -39.2184 116.018
lradius 102.81
lwrist 26.2697
lhand -13.1433 4.50198
lfingers 7.12502
lthumb 12.9551 34.0798
rfemur -9.93685 4.10359 30.1566
rtibia 34.7136
rfoot -17.8914 -5.42671
rtoes 22.4499
lfemur 5.00643 5.68758 -11.611
ltibia 59.3761
lfoot 20.8946 -7.3852
ltoes -1.48091
1697
root 4.09906 16.7344 -5.22332 1485.29 -265.566 -668.382
lowerback -1.25289 -0.702245 0.681516
upperback -4.77943 -0.777401 1.4126
thorax -4.20888 -0.339082 1.09053
lowerneck -12.8037 5.11957 3.55835
upperneck 22.7552 4.38891 10.5647
head 9.13933 3.73014 3.5801
rclavicle -5.2181e-015 9.23106e-015
rhumerus -62.7413 35.3097 -107.271
rradius 103.854
rwrist -4.29307
rhand -43.74 36.3131
rfingers 7.12502
rthumb -16.5709 7.00056
lclavicle -5.2181e-015 9.23106e-015
lhumerus -59.136 -38.8771 115.919
lradius 102.411
lwrist 26.1068
lhand -13.1781 4.49974
lfingers 7.12502
lthumb 12.9215 34.0797
rfemur -9.16197 3.85861 30.6297
rtibia 34.3646
rfoot -18.1546 -5.55885
rtoes 22.1325
lfemur 3.04093 5.35502 -11.2326
ltibia 62.1026
lfoot 19.4363 -8.08519
ltoes -2.90196
1698
root 4.21738 16.7331 -5.21628 1484.71 -265.151 -668.883
lowerback -1.19894 -0.624296 0.924644
upperback -4.74108 -0.668909 1.44736
thorax -4.20374 -0.293678 0.987908
lowerneck -12.7965 5.06882 3.48244
upperneck 22.6687 4.32086 10.6714
head 9.10575 3.70159 3.61737
rclavicle -5.11871e-015 9.0447e-015
rhumerus -62.0134 35.5356 -107.174
rradius 103.662
rwrist -4.28366
rhand -43.7026 36.2933
rfingers 7.12502
rthumb -16.5349 6.97782
lclavicle -5.11871e-015 9.0447e-015
lhumerus -59.3249 -38.5469 115.835
lradius 102.013
lwrist 26.0193
lhand -13.2332 4.49832
lfingers 7.12502
lthumb 12.8684 34.0816
rfemur -8.4311 3.6055 31.0206
rtibia 33.9887
rfoot -18.384 -5.67125
rtoes 21.8715
lfemur 1.03828 5.01309 -10.9687
ltibia 64.6334
lfoot 17.9926 -8.64917
ltoes -4.34952
1699
root 4.33542 16.735 -5.20932 1483.61 -264.772 -669.926
lowerback -1.18811 -0.548214 1.09943
upperback -4.71514 -0.564669 1.46028
thorax -4.18579 -0.248027 0.900688
lowerneck -12.7861 5.01488 3.39974
upperneck 22.5639 4.25047 10.7809
head 9.06514 3.67069 3.65544
rclavicle -3.60297e-015 -1.54058e-015
rhumerus -61.2997 35.7284 -107.083
rradius 103.485
rwrist -4.27698
rhand -43.6805 36.2877
rfingers 7.12502
rthumb -16.5136 6.97041
lclavicle -3.60297e-015 -1.54058e-015
lhumerus -59.5678 -38.2341 115.77
lradius 101.63
lwrist 26.0078
lhand -13.286 4.49691
lfingers 7.12502
lthumb 12.8175 34.0834
rfemur -7.72852 3.33708 31.3339
rtibia 33.5872
rfoot -18.5791 -5.762
rtoes 21.66
lfemur -0.977284 4.66732 -10.8118
ltibia 66.9611
lfoot 16.5295 -9.03491
ltoes -5.77422
1700
root 4.45332 16.7397 -5.20245 1482.23 -264.418 -671.281
lowerback -1.20119 -0.473796 1.22134
upperback -4.6999 -0.46403 1.45639
thorax -4.16449 -0.202377 0.825682
lowerneck -12.7709 4.96314 3.30837
upperneck 22.439 4.18503 10.8977
head 9.01614 3.64107 3.69675
rclavicle -1.47846e-014 7.95139e-015
rhumerus -60.6111 35.8945 -107.003
rradius 103.326
rwrist -4.2736
rhand -43.6691 36.2939
rfingers 7.12502
rthumb -16.5027 6.97571
lclavicle -1.47846e-014 7.95139e-015
lhumerus -59.8515 -37.9392 115.716
lradius 101.267
lwrist 26.0518
lhand -13.3037 4.52588
lfingers 7.12502
lthumb 12.8004 34.1134
rfemur -7.03456 3.0488 31.5853
rtibia 33.155
rfoot -18.7365 -5.8243
rtoes 21.4901
lfemur -2.98162 4.32483 -10.7433
ltibia 69.0817
lfoot 14.955 -9.22571
ltoes -7.51159
